<?xml version="1.0" encoding="utf-8"?>
<!-- Generator: Adobe Illustrator 14.0.0, SVG Export Plug-In . SVG Version: 6.00 Build 43363)  -->
<!DOCTYPE svg PUBLIC "-//W3C//DTD SVG 1.1//EN" "http://www.w3.org/Graphics/SVG/1.1/DTD/svg11.dtd">
<svg version="1.1" id="Layer_1" xmlns="http://www.w3.org/2000/svg" xmlns:xlink="http://www.w3.org/1999/xlink" x="0px" y="0px"
	 width="512px" height="512px" viewBox="0 0 512 512" enable-background="new 0 0 512 512" xml:space="preserve">
<g>
	<path fill="#201C54" d="M116.943,252.54c0-0.859,0-1.778,0-2.577c2.638-0.368,8.833-1.533,9.323-1.533
		c0.123,0,0.123,0.061,0.123,0.184c0,6.747-0.123,16.806-0.123,23.308l4.293,0.184c0,0.92,0,1.779-0.061,2.639
		c-1.963,0-4.539,0-6.809,0c-2.085,0-4.355,0.062-6.379,0.062c0-0.921,0-1.842,0-2.699l4.109-0.185c0.184,0,0.246-0.123,0.246-0.246
		v-19.014L116.943,252.54z M126.819,239.23c0,1.902-1.35,3.312-3.251,3.312c-1.901,0-3.312-1.472-3.312-3.251
		c0-1.717,1.227-3.251,3.496-3.251S126.819,237.88,126.819,239.23z"/>
	<path fill="#201C54" d="M133.197,252.601c0-0.797,0.062-1.717,0.062-2.515c2.453-0.368,8.035-1.595,8.464-1.595
		c0.123,0,0.123,0.062,0.123,0.184c0.184,1.165,0.491,2.76,0.675,3.619l0.307,0.062c6.072-3.681,7.422-3.926,10.06-3.926
		c3.189,0,5.397,2.208,6.501,4.17c0.92,1.472,1.227,3.067,1.227,4.478c0,4.479-0.123,10.242-0.184,14.844l3.925,0.184
		c0,0.858,0,1.779-0.061,2.639c-1.963,0-4.294,0.062-6.441,0.062c-1.901,0-4.17,0.062-5.888,0.062c0-0.859,0-1.841,0.062-2.699
		l3.557-0.185c0.123-0.062,0.184-0.123,0.184-0.245c0.062-3.312,0.062-7.667,0.062-11.103c0-2.453,0-4.785-0.797-6.195
		c-1.166-2.085-2.699-2.331-4.171-2.331c-2.27,0-5.705,1.656-8.158,3.619c-0.062,4.601-0.123,11.715-0.123,16.193l4.417,0.185
		c0,0.857-0.062,1.84-0.062,2.699c-2.024,0-4.6-0.062-6.931-0.062c-1.962,0-4.11,0.062-5.95,0.062c0-0.859,0-1.779,0.062-2.699
		l3.619-0.185c0.123,0,0.245-0.062,0.245-0.185l-0.061-19.014L133.197,252.601z"/>
	<path fill="#201C54" d="M173.496,273.764c-1.595-1.474-1.656-2.884-1.656-4.785c0-3.127,0.061-7.975,0.061-9.445
		c0-1.901,0.062-5.582,0.062-7.115c-1.227,0-2.822,0-4.232,0c0-0.981,0.061-2.086,0.123-3.006c1.288,0,2.638-0.061,3.925-0.123
		c0.123,0,0.368-0.184,0.368-0.429c0.062-1.717,0.123-3.926,0.184-5.705c1.595-1.043,4.171-2.085,4.355-2.085
		c0.122,0,0.184,0.062,0.184,0.184c-0.062,2.085-0.123,5.398-0.123,7.974c3.128,0,6.502,0,9.63-0.061c0,1.104-0.123,2.27-0.184,3.19
		c-2.76,0-6.072,0-9.569,0c0,0.92,0,4.907,0,6.87c-0.061,2.515-0.061,6.071-0.061,9.078c0,2.637,1.84,3.74,3.986,3.74
		c1.411,0,3.742-0.368,5.888-0.92c0.184,0.798,0.307,1.84,0.43,2.699c-2.883,1.043-6.379,1.533-8.648,1.533
		C176.931,275.357,175.213,275.296,173.496,273.764z"/>
	<path fill="#201C54" d="M202.938,248.431c3.189,0,5.643,1.165,7.237,3.128c1.779,2.27,2.331,5.275,2.331,8.035
		c-0.307,0.736-1.472,2.146-2.085,2.208c-3.619,0.122-11.716,0.185-15.58,0.185c-0.062,3.373,0.613,5.949,2.024,7.605
		c1.839,2.085,3.802,2.453,6.317,2.453c2.821,0,6.011-1.104,8.158-1.963c0.307,0.859,0.552,1.9,0.675,2.761
		c-3.374,1.656-7.115,2.576-9.753,2.576c-7.973,0-12.389-5.214-12.389-12.392C189.874,255.055,195.025,248.431,202.938,248.431z
		 M197.663,253.153c-0.797,0.982-2.393,2.882-2.576,6.011c3.496,0,8.464-0.062,11.96-0.184c0.491,0,0.797-0.185,0.797-0.676
		c0-2.085-0.736-4.049-1.656-5.152c-0.92-1.166-2.147-1.84-3.986-1.84C200.116,251.313,198.705,251.988,197.663,253.153z"/>
	<path fill="#201C54" d="M216.431,252.601c0-0.859,0-1.717,0.062-2.576c2.453-0.368,8.158-1.533,8.525-1.533
		c0.062,0,0.062,0.062,0.062,0.184c0.123,1.595,0.184,4.907,0.246,8.158l0.307,0.061c3.497-6.87,5.704-8.463,8.28-8.463
		c1.35,0,2.76,0.307,3.619,0.674c0,1.289-0.981,3.926-1.717,4.478c-0.552-0.062-2.024-0.429-3.128-0.429
		c-0.613,0-1.166,0.184-2.085,0.859c-1.104,0.981-2.453,2.76-3.987,5.764c-0.736,1.351-1.042,3.619-1.042,5.582
		c-0.062,2.146-0.062,4.602-0.062,6.625l5.766,0.123c0,0.797,0,1.778-0.062,2.638c-2.208,0-5.152,0-7.79,0
		c-2.146,0-4.417,0.062-6.379,0.062c0-0.859,0-1.841,0.061-2.638l3.558-0.185c0.123,0,0.245-0.123,0.245-0.185
		c0-6.071,0-13.312,0-19.137L216.431,252.601z"/>
	<path fill="#201C54" d="M240.045,252.54c0-0.859,0-1.778,0-2.577c2.638-0.368,8.833-1.533,9.324-1.533
		c0.122,0,0.122,0.061,0.122,0.184c0,6.747-0.122,16.806-0.122,23.308l4.293,0.184c0,0.92,0,1.779-0.062,2.639
		c-1.963,0-4.539,0-6.809,0c-2.085,0-4.355,0.062-6.379,0.062c0-0.921,0-1.842,0-2.699l4.109-0.185c0.184,0,0.246-0.123,0.246-0.246
		v-19.014L240.045,252.54z M249.92,239.23c0,1.902-1.35,3.312-3.251,3.312s-3.312-1.472-3.312-3.251
		c0-1.717,1.227-3.251,3.497-3.251S249.92,237.88,249.92,239.23z"/>
	<path fill="#201C54" d="M256.36,252.54c0-0.798,0-1.718,0.061-2.515c2.454-0.306,8.035-1.533,8.465-1.533
		c0.122,0,0.185,0.062,0.185,0.184c0.121,0.981,0.367,2.208,0.49,3.312l0.246,0.062c5.825-3.496,7.114-3.619,9.198-3.619
		c3.437,0,5.644,2.699,6.563,4.109h0.185c5.888-3.741,7.358-4.048,9.813-4.048c3.435,0,5.459,2.454,6.439,3.987
		c0.857,1.411,1.35,2.944,1.35,4.662c0,4.601-0.184,10.06-0.184,14.782l3.926,0.122c0,0.859-0.062,1.841-0.062,2.699
		c-1.9,0-4.231,0-6.379,0c-2.024,0-4.049,0.062-5.766,0.062c0-0.859,0-1.842,0.062-2.639l3.435-0.245
		c0.123,0,0.186-0.123,0.186-0.246c0.061-4.048,0.061-8.831,0.061-12.145c0-2.024-0.061-3.741-0.674-5.029
		c-0.857-1.779-2.454-2.393-4.172-2.393c-2.33,0-5.152,1.595-7.299,3.189c0.062,4.661-0.062,11.348-0.062,16.623l4.171,0.184
		c0,0.799,0,1.779-0.062,2.639c-2.024,0-4.478,0-6.81,0c-1.9,0-3.986,0.062-5.58,0.062c0-0.859,0-1.842,0.061-2.699l3.436-0.185
		c0.123,0,0.244-0.123,0.244-0.246c0-4.048,0-8.71,0-12.573c0-2.33,0-3.742-0.734-5.029c-0.981-1.779-2.453-2.085-3.864-2.085
		c-2.024,0-5.152,1.411-7.481,3.251c-0.123,5.213-0.186,11.47-0.186,16.684l4.354,0.184c0,0.799,0,1.779-0.061,2.639
		c-2.025,0-4.417,0-6.747,0c-1.901,0-4.233,0.062-6.013,0.062c0-0.859,0-1.842,0.062-2.699l3.618-0.185
		c0.123,0,0.185-0.123,0.185-0.245v-18.954L256.36,252.54z"/>
	<path fill="#201C54" d="M321.79,272.658c-4.538,2.33-6.747,2.761-8.955,2.761c-3.005,0-6.931-2.515-6.931-6.011
		c0-3.436,3.74-8.281,11.96-8.221c2.086,0,3.62,0,4.172,0c0.245-6.5-1.289-9.139-5.092-9.139c-2.575,0-5.274,1.84-7.359,4.109
		c-0.675-0.675-1.472-1.533-2.086-2.331c2.576-2.638,6.072-5.397,10.918-5.397c4.539,0,8.219,3.128,8.219,9.937
		c0,2.943-0.062,10.305-0.122,12.881c0,0.613,0.185,0.92,0.553,0.92l4.108-0.123c0,0.736,0,1.719,0,2.576
		c-0.857,0.246-4.354,0.798-7.054,0.798c-0.613-0.552-1.228-1.532-2.023-2.761H321.79L321.79,272.658z M314.982,272.168
		c1.777,0,4.477-0.857,6.808-2.454c0.185-0.122,0.185-0.245,0.185-0.552c0-1.165,0-3.559,0-5.214
		c-0.307-0.062-1.596-0.122-3.435-0.122c-5.397,0-7.668,2.27-7.668,5.091C310.872,270.818,312.59,272.168,314.982,272.168z"/>
	<path fill="#201C54" d="M340.866,267.445c-2.699-1.289-5.704-3.926-5.704-8.711c0-5.336,4.415-10.304,11.775-10.304
		c1.9,0,3.495,0.307,4.231,0.552c0.491,0.123,0.921,0.123,1.289,0.123c2.637-0.123,6.072-0.245,8.035-0.368
		c0.061,0.981,0.061,2.085,0,3.128c-1.289,0-4.602,0-5.828,0v0.245c1.351,1.288,2.146,3.497,2.146,5.766
		c0,2.208-0.92,5.091-2.76,6.993c-2.024,2.146-4.907,3.618-10.121,3.373c-1.472,1.166-3.006,2.331-3.006,3.189
		c0,1.594,1.963,1.777,8.035,2.023c4.417,0.184,7.238,0.49,8.895,1.595c1.901,1.228,2.821,2.394,2.821,4.847
		c0,3.312-2.146,6.438-6.317,8.219c-2.575,1.104-5.949,1.717-9.385,1.717c-7.36,0-11.716-2.453-11.716-7.055
		c0-1.164,0.245-1.838,1.351-2.76c2.27-1.777,3.558-2.637,5.091-3.863v-0.307c-1.779-0.553-3.618-1.596-3.618-4.232
		c0-0.49,0.244-0.674,4.784-3.863L340.866,267.445L340.866,267.445z M349.207,277.136c-3.066-0.245-5.151-0.307-6.378-0.368
		c-2.822,2.455-4.785,3.987-4.785,6.012c0,3.129,4.233,4.354,7.605,4.354c2.332,0,5.151-0.43,7.055-1.411
		c2.146-1.164,3.373-2.76,3.373-4.845C356.077,278.057,354.482,277.504,349.207,277.136z M345.896,265.666
		c3.435,0,6.133-2.639,6.133-7.605c0-2.331-0.43-3.864-1.41-5.091c-0.92-1.166-2.208-1.901-4.294-1.901
		c-3.804,0-6.317,2.637-6.317,7.483C340.007,263.766,342.829,265.666,345.896,265.666z"/>
	<path fill="#201C54" d="M376.441,248.431c3.188,0,5.642,1.165,7.235,3.128c1.779,2.27,2.331,5.275,2.331,8.035
		c-0.306,0.736-1.472,2.146-2.085,2.208c-3.619,0.122-11.716,0.185-15.58,0.185c-0.061,3.373,0.614,5.949,2.024,7.605
		c1.84,2.085,3.803,2.453,6.316,2.453c2.822,0,6.013-1.104,8.158-1.963c0.309,0.859,0.552,1.9,0.675,2.761
		c-3.373,1.656-7.114,2.576-9.753,2.576c-7.974,0-12.391-5.214-12.391-12.392C363.375,255.055,368.527,248.431,376.441,248.431z
		 M371.165,253.153c-0.797,0.982-2.392,2.882-2.575,6.011c3.495,0,8.464-0.062,11.961-0.184c0.489,0,0.797-0.185,0.797-0.676
		c0-2.085-0.735-4.049-1.655-5.152c-0.921-1.166-2.146-1.84-3.986-1.84C373.619,251.313,372.208,251.988,371.165,253.153z"/>
	<path fill="#201C54" d="M389.688,252.601c0-0.797,0.062-1.717,0.062-2.515c2.454-0.368,8.035-1.595,8.465-1.595
		c0.122,0,0.122,0.062,0.122,0.184c0.186,1.165,0.491,2.76,0.676,3.619l0.307,0.062c6.071-3.681,7.422-3.926,10.06-3.926
		c3.189,0,5.397,2.208,6.501,4.17c0.92,1.472,1.229,3.067,1.229,4.478c0,4.479-0.123,10.242-0.186,14.844l3.926,0.184
		c0,0.858,0,1.779-0.061,2.639c-1.963,0-4.294,0.062-6.44,0.062c-1.901,0-4.172,0.062-5.889,0.062c0-0.859,0-1.841,0.062-2.699
		l3.558-0.185c0.123-0.062,0.184-0.123,0.184-0.245c0.062-3.312,0.062-7.667,0.062-11.103c0-2.453,0-4.785-0.797-6.195
		c-1.165-2.085-2.698-2.331-4.171-2.331c-2.27,0-5.703,1.656-8.157,3.619c-0.062,4.601-0.123,11.715-0.123,16.193l4.417,0.185
		c0,0.857-0.062,1.84-0.062,2.699c-2.022,0-4.6-0.062-6.93-0.062c-1.963,0-4.11,0.062-5.951,0.062c0-0.859,0-1.779,0.062-2.699
		l3.618-0.185c0.123,0,0.244-0.062,0.244-0.185l-0.061-19.014L389.688,252.601z"/>
	<path fill="#201C54" d="M444.34,272.658c-5.09,2.576-6.379,2.761-8.524,2.761c-2.884,0-5.582-1.104-7.483-3.006
		c-2.331-2.271-3.558-5.337-3.558-9.323s1.533-7.851,4.109-10.733c2.085-2.393,5.214-3.926,9.14-3.926
		c2.208,0,4.294,0.552,6.071,1.227l0.245-0.184c-0.061-4.723-0.061-8.833-0.123-13.372l-5.09-0.123c0-0.859,0-1.779,0.061-2.638
		c3.066-0.368,9.14-1.533,9.692-1.533c0.122,0,0.185,0.062,0.185,0.246c0,10.917-0.185,26.743-0.185,38.642
		c0,0.799,0.122,1.289,0.674,1.289l4.171-0.185c0,0.798,0,1.778,0,2.576c-0.98,0.368-4.723,1.043-7.176,1.043
		c-0.614-0.491-1.227-1.351-1.841-2.761H444.34z M444.156,253.215c-1.779-0.981-3.804-1.595-6.013-1.595
		c-2.451,0-4.66,0.981-6.071,2.944c-1.473,1.963-2.207,4.477-2.207,7.974c0,3.065,0.552,5.214,1.962,7.114
		c1.288,1.719,3.251,2.516,5.214,2.516c2.577,0,4.784-0.98,6.809-2.393c0.308-0.246,0.367-0.49,0.367-0.92
		C444.217,263.458,444.217,257.876,444.156,253.215z"/>
	<path fill="#201C54" d="M472.616,272.658c-4.54,2.33-6.748,2.761-8.955,2.761c-3.006,0-6.933-2.515-6.933-6.011
		c0-3.436,3.742-8.281,11.962-8.221c2.085,0,3.617,0,4.17,0c0.245-6.5-1.287-9.139-5.091-9.139c-2.576,0-5.274,1.84-7.36,4.109
		c-0.674-0.675-1.472-1.533-2.085-2.331c2.576-2.638,6.072-5.397,10.918-5.397c4.538,0,8.219,3.128,8.219,9.937
		c0,2.943-0.061,10.305-0.123,12.881c0,0.613,0.186,0.92,0.553,0.92l4.109-0.123c0,0.736,0,1.719,0,2.576
		c-0.858,0.246-4.354,0.798-7.054,0.798c-0.613-0.552-1.228-1.532-2.024-2.761H472.616L472.616,272.658z M465.808,272.168
		c1.779,0,4.479-0.857,6.81-2.454c0.184-0.122,0.184-0.245,0.184-0.552c0-1.165,0-3.559,0-5.214
		c-0.307-0.062-1.595-0.122-3.435-0.122c-5.398,0-7.667,2.27-7.667,5.091C461.698,270.818,463.415,272.168,465.808,272.168z"/>
</g>
<g>
	<path fill="#F89840" d="M48.037,253.061c0.492,1.835,2.5,2.694,4.81,2.075c1.718-0.46,4.103-1.987,5.942-4.133
		c0.146-0.165,0.114-0.284,0.035-0.58c-0.301-1.125-0.921-3.437-1.35-5.036c-0.312,0.021-1.572,0.295-3.349,0.772
		C48.911,247.556,47.307,250.333,48.037,253.061z"/>
	<path fill="#F89840" d="M77.449,217.19H71.06l-2.623,0.703c-0.685,0.184-1.379-0.125-1.727-0.703H32.17
		c-8.931,0-16.17,7.24-16.17,16.171v45.278c0,8.93,7.24,16.17,16.17,16.17h45.278c4.805,0,9.119-2.098,12.081-5.425l-1.805,0.483
		c-0.829,0.223-1.681-0.27-1.902-1.098c-0.223-0.83,0.27-1.68,1.097-1.901l4.499-1.205c0.208-0.056,0.417-0.065,0.618-0.038
		c1.014-2.115,1.583-4.484,1.583-6.986v-45.277C93.62,224.43,86.38,217.19,77.449,217.19z M82.471,246.274
		c0.222,0.83-0.27,1.682-1.098,1.903l-4.498,1.206c-0.829,0.223-1.681-0.27-1.902-1.1c-0.223-0.828,0.268-1.679,1.097-1.902
		l4.499-1.205C81.398,244.955,82.249,245.446,82.471,246.274z M81.266,241.775c0.222,0.83-0.27,1.682-1.098,1.903l-4.498,1.206
		c-0.829,0.223-1.681-0.27-1.902-1.1c-0.223-0.828,0.27-1.677,1.097-1.899l4.499-1.206
		C80.193,240.458,81.044,240.948,81.266,241.775z M80.06,237.279c0.223,0.828-0.27,1.679-1.098,1.901l-4.498,1.205
		c-0.829,0.223-1.679-0.27-1.902-1.097c-0.223-0.83,0.27-1.679,1.098-1.902l4.499-1.206
		C78.987,235.959,79.839,236.449,80.06,237.279z M78.854,232.78c0.223,0.828-0.27,1.679-1.096,1.902l-4.499,1.205
		c-0.829,0.222-1.679-0.27-1.902-1.098c-0.222-0.83,0.27-1.679,1.098-1.902l4.499-1.204C77.782,231.46,78.633,231.95,78.854,232.78z
		 M77.649,228.281c0.223,0.828-0.27,1.679-1.096,1.901l-4.499,1.205c-0.829,0.223-1.679-0.27-1.902-1.097
		c-0.221-0.828,0.27-1.68,1.099-1.902l4.498-1.205C76.576,226.961,77.428,227.453,77.649,228.281z M76.444,223.782
		c0.222,0.83-0.269,1.679-1.097,1.902l-4.499,1.204c-0.829,0.223-1.68-0.267-1.902-1.097c-0.222-0.828,0.27-1.68,1.098-1.902
		l4.498-1.205C75.371,222.462,76.222,222.954,76.444,223.782z M68.84,219.393l4.499-1.206c0.827-0.222,1.678,0.269,1.901,1.096
		c0.221,0.83-0.27,1.682-1.098,1.903l-4.499,1.206c-0.829,0.223-1.68-0.27-1.902-1.1C67.52,220.464,68.011,219.615,68.84,219.393z
		 M50.021,231.318c4.384-1.176,8.75,0.893,10.512,7.471c0.762,2.843,2.606,9.969,3.214,12.473c0.159,0.594,0.416,0.842,0.771,0.746
		l3.938-1.181c0.19,0.71,0.444,1.658,0.667,2.488c-0.766,0.46-4,1.897-6.607,2.596c-0.735-0.374-1.581-1.165-2.669-2.143
		l-0.296,0.079c-3.78,3.426-5.802,4.412-7.936,4.984c-2.902,0.778-7.345-0.636-8.25-4.013c-0.889-3.318,1.471-8.966,9.426-11.035
		c2.014-0.539,3.496-0.936,4.029-1.078c-1.446-6.344-3.609-8.495-7.283-7.511c-2.488,0.667-4.619,3.143-6.045,5.875
		c-0.827-0.479-1.819-1.1-2.619-1.713C42.678,236.144,45.342,232.573,50.021,231.318z M24.954,225.208
		c2.192-0.586,3.438,0.984,3.788,2.287c0.493,1.838-0.445,3.551-2.283,4.043c-1.837,0.492-3.579-0.565-4.04-2.285
		C21.974,227.595,22.762,225.796,24.954,225.208z M28.067,261.713l3.922-1.242c0.178-0.047,0.206-0.182,0.173-0.299l-4.921-18.368
		l-4.594,1.104c-0.222-0.828-0.46-1.717-0.667-2.488c2.453-1.038,8.134-3.768,8.608-3.895c0.119-0.031,0.135,0.029,0.167,0.146
		c1.746,6.516,4.23,16.265,5.913,22.546l4.196-0.935c0.237,0.89,0.46,1.719,0.623,2.562c-1.896,0.509-4.384,1.175-6.576,1.763
		c-2.015,0.539-4.191,1.188-6.146,1.711C28.528,263.432,28.29,262.543,28.067,261.713z M31.737,277.975l-0.425-1.589l40.761-10.922
		l0.425,1.588L31.737,277.975z M35.714,292.816l-0.425-1.588l40.76-10.922l0.425,1.588L35.714,292.816z M76.179,252.782
		c-0.222-0.828,0.269-1.68,1.098-1.902l4.499-1.205c0.828-0.223,1.678,0.27,1.9,1.098c0.222,0.828-0.27,1.679-1.097,1.901
		l-4.499,1.205C77.252,254.102,76.401,253.61,76.179,252.782z M77.385,257.281c-0.222-0.828,0.269-1.68,1.098-1.902l4.499-1.204
		c0.827-0.223,1.678,0.27,1.9,1.097c0.222,0.828-0.27,1.68-1.097,1.902l-4.499,1.204C78.458,258.602,77.606,258.107,77.385,257.281z
		 M78.589,261.779c-0.222-0.829,0.27-1.68,1.099-1.901l4.499-1.205c0.827-0.222,1.678,0.269,1.901,1.099
		c0.222,0.828-0.27,1.68-1.097,1.9l-4.499,1.205C79.662,263.1,78.812,262.607,78.589,261.779z M79.795,266.277
		c-0.222-0.829,0.27-1.678,1.098-1.9l4.499-1.206c0.827-0.221,1.678,0.269,1.901,1.099c0.221,0.828-0.27,1.681-1.098,1.901
		l-4.499,1.205C80.868,267.6,80.017,267.105,79.795,266.277z M81,270.775c-0.222-0.828,0.27-1.678,1.098-1.899l4.498-1.206
		c0.828-0.221,1.679,0.27,1.901,1.098c0.222,0.83-0.269,1.682-1.097,1.902l-4.499,1.205C82.073,272.098,81.223,271.605,81,270.775z
		 M82.206,275.273c-0.221-0.828,0.27-1.68,1.099-1.901l4.498-1.204c0.828-0.223,1.679,0.27,1.9,1.098
		c0.223,0.83-0.27,1.68-1.096,1.901l-4.499,1.205C83.279,276.594,82.428,276.104,82.206,275.273z M83.411,279.773
		c-0.222-0.828,0.27-1.681,1.098-1.902l4.499-1.204c0.828-0.224,1.68,0.271,1.901,1.099c0.223,0.826-0.27,1.678-1.096,1.9
		l-4.499,1.204C84.484,281.093,83.634,280.602,83.411,279.773z M91.016,284.165l-4.498,1.204c-0.829,0.223-1.681-0.27-1.902-1.098
		c-0.223-0.83,0.27-1.68,1.098-1.901l4.499-1.204c0.828-0.223,1.68,0.268,1.901,1.098C92.336,283.091,91.844,283.941,91.016,284.165
		z"/>
</g>
</svg>
